<svg xmlns="http://www.w3.org/2000/svg" width="1440" height="900" viewBox="0 0 1440 900" role="img">
<title>失败之后，Agent 如何继续？四个 Harness 的重试、检查点与恢复策略</title><desc>历史缺少结果，不代表操作没有发生。独立崩溃实验：朴素重跑 2 条，外部幂等键版本 1 条。</desc>
<rect width="1440" height="900" fill="#F7F5EF"/>
<style>text{font-family:-apple-system,BlinkMacSystemFont,"PingFang SC","Noto Sans CJK SC",sans-serif;fill:#292824}.muted{fill:#68645E}.accent{fill:#964D3B}</style>
<text x="70" y="78" font-size="22" class="accent">AGENT HARNESS / 06</text>
<text x="70" y="136" font-size="44" font-weight="700">失败之后，Agent 如何继续？</text>
<text x="70" y="188" font-size="38" font-weight="700">四个 Harness 的重试、检查点与恢复策略</text>
<text x="70" y="237" font-size="29" class="muted">历史缺少结果，不代表操作没有发生</text>
<rect x="70" y="265" width="635" height="158" rx="14" fill="white" stroke="#DCD7CD"/>
<text x="96" y="311" font-size="26" font-weight="600">Codex</text>
<text x="96" y="359" font-size="24">存活 checkpoint 与基线重放</text>
<text x="96" y="395" font-size="16" class="muted">固定源码 c4017a87aacc · 取证卡 C06c</text>
<rect x="735" y="265" width="635" height="158" rx="14" fill="white" stroke="#DCD7CD"/>
<text x="761" y="311" font-size="26" font-weight="600">Pi</text>
<text x="761" y="359" font-size="24">双 safe 重放与有序结果归位</text>
<text x="761" y="395" font-size="16" class="muted">固定源码 71dca871bc80 · 取证卡 P06i</text>
<rect x="70" y="453" width="635" height="158" rx="14" fill="white" stroke="#DCD7CD"/>
<text x="96" y="499" font-size="26" font-weight="600">DeepSeek Harness</text>
<text x="96" y="547" font-size="24">实时队列和显式 append 分责</text>
<text x="96" y="583" font-size="16" class="muted">固定源码 c291e7961a51 · 取证卡 D06d</text>
<rect x="735" y="453" width="635" height="158" rx="14" fill="white" stroke="#DCD7CD"/>
<text x="761" y="499" font-size="26" font-weight="600">Grok Build</text>
<text x="761" y="547" font-size="24">部分回滚与未接线恢复消费端</text>
<text x="761" y="583" font-size="16" class="muted">固定源码 37949780c144 · 取证卡 G06d</text>
<rect x="70" y="673" width="1300" height="128" rx="14" fill="#EFEBE3"/>
<text x="96" y="714" font-size="20" class="accent">本轮证据与边界</text>
<text x="96" y="756" font-size="23">独立崩溃实验：朴素重跑 2 条，外部幂等键版本 1 条。</text>
<text x="70" y="855" font-size="18" class="muted">2026-09-12 · 源码研究版 · 详细调用链与实验范围见同编号正文</text>
</svg>
